<?xml version="1.0" standalone="no"?>
<!DOCTYPE svg PUBLIC "-//W3C//DTD SVG 20010904//EN"
 "http://www.w3.org/TR/2001/REC-SVG-20010904/DTD/svg10.dtd">
<svg version="1.0" xmlns="http://www.w3.org/2000/svg"
 width="512.000000pt" height="512.000000pt" viewBox="0 0 512.000000 512.000000"
 preserveAspectRatio="xMidYMid meet">
<metadata>
Created by potrace 1.14, written by Peter Selinger 2001-2017
</metadata>
<g transform="translate(0.000000,512.000000) scale(0.100000,-0.100000)"
fill="#000000" stroke="none">
<path d="M2405 4722 c-6 -4 -11 -38 -12 -77 -1 -38 -3 -79 -5 -90 -5 -30 -26
-39 -47 -21 -10 9 -22 16 -28 16 -6 0 -13 6 -16 13 -2 6 -8 8 -13 4 -5 -5 -1
-14 9 -21 9 -7 17 -16 17 -20 0 -4 9 -16 19 -27 18 -20 20 -54 5 -68 -4 -3 -4
2 -1 12 5 13 3 17 -5 14 -7 -2 -12 -10 -10 -16 1 -7 -7 -10 -21 -7 -16 3 -24
-1 -24 -10 0 -8 6 -14 14 -14 28 0 10 -18 -69 -69 -302 -196 -576 -432 -640
-552 -48 -88 -41 -109 79 -264 70 -90 99 -105 189 -100 38 2 83 8 99 13 17 5
63 10 103 11 l72 2 -21 -53 c-37 -95 -148 -225 -254 -298 -85 -59 -185 -87
-255 -72 -28 6 -37 14 -46 41 -15 45 -169 232 -219 265 -72 48 -159 27 -295
-74 -114 -84 -304 -293 -429 -470 -21 -30 -44 -54 -50 -52 -7 1 -10 -2 -6 -7
11 -19 -30 -31 -58 -16 -15 8 -27 11 -27 8 0 -3 -7 0 -15 7 -30 25 -14 0 22
-34 32 -29 35 -37 24 -50 -11 -13 -11 -16 3 -16 21 0 20 -25 -5 -79 l-20 -45
26 28 c14 15 25 31 25 35 0 5 7 11 15 15 18 7 34 -9 95 -91 38 -51 65 -73 165
-134 66 -40 122 -75 125 -78 3 -3 32 -24 64 -46 95 -64 175 -130 263 -217 158
-157 170 -240 39 -280 -17 -5 -92 -11 -166 -14 -194 -6 -217 -10 -272 -45 -97
-63 -120 -176 -60 -297 89 -179 260 -346 424 -414 75 -31 218 -32 268 -3 42
25 81 80 111 157 51 126 104 172 199 172 72 -1 143 -25 220 -75 106 -68 168
-147 307 -388 64 -111 195 -289 220 -298 43 -17 243 102 418 248 96 80 254
249 298 319 87 141 85 208 -10 332 -83 108 -115 135 -210 180 l-86 40 5 70 c4
53 14 87 43 146 51 104 178 232 282 284 74 37 155 55 194 43 23 -8 23 -18 1
-210 -16 -134 -9 -150 160 -359 30 -36 33 -38 78 -34 151 15 482 361 755 790
88 138 88 141 -21 273 -84 100 -90 105 -203 165 -149 79 -330 201 -396 265
-80 78 -108 192 -65 263 21 34 92 73 208 113 121 42 179 110 185 215 9 145
-80 282 -292 450 -125 100 -206 137 -301 138 -80 1 -130 -26 -162 -88 -23 -44
-26 -86 -17 -286 3 -80 0 -101 -16 -134 -33 -65 -72 -84 -162 -78 -41 3 -206
125 -313 231 -173 172 -374 437 -382 503 -2 20 -1 35 3 32 9 -5 6 17 -4 34 -5
7 0 27 13 47 23 38 16 46 -16 18 -11 -10 -25 -19 -32 -21 -15 -3 -44 23 -36
31 4 3 2 12 -2 19 -5 7 -9 18 -11 23 -1 6 -5 21 -8 35 -4 14 -7 32 -7 40 0 8
-5 20 -10 27 -5 7 -7 17 -3 23 7 12 4 13 -10 2z"/>
</g>
</svg>
